<?xml version="1.0" encoding="iso-8859-1"?><!-- Generator: Adobe Illustrator 23.0.0, SVG Export Plug-In . SVG Version: 6.00 Build 0)  --><svg xmlns="http://www.w3.org/2000/svg" xmlns:xlink="http://www.w3.org/1999/xlink" viewBox="0 0 30 30" width="480px" height="480px"><g><path d="M24,4H6C4.895,4,4,4.895,4,6v18c0,1.105,0.895,2,2,2h18c1.105,0,2-0.895,2-2V6C26,4.895,25.105,4,24,4z M11.36,20.124H9.596v-9.864h1.764V20.124z M20.404,20.124h-1.641v-1.183h-0.116c-0.424,0.82-1.285,1.306-2.324,1.306c-1.894,0-3.076-1.49-3.076-3.869c0-2.365,1.189-3.855,3.076-3.855c1.025,0,1.873,0.492,2.27,1.312h0.116V9.753h1.695V20.124z"/><path d="M16.849,13.964c-1.155,0-1.866,0.916-1.866,2.42c0,1.511,0.704,2.42,1.866,2.42c1.169,0,1.88-0.916,1.88-2.42C18.729,14.894,18.011,13.964,16.849,13.964z"/></g></svg>