<?xml version="1.0" encoding="UTF-8"?>
<svg id="uuid-2d9d5403-deb7-4561-be88-f9711296d952" data-name="Capa 1" xmlns="http://www.w3.org/2000/svg" viewBox="0 0 399.44 290.3">
  <path d="M349.67,199.08L288.09,0c-36.21,82.81-71.84,169.66-113.45,226.79-14.64,18.26-35.08,26.81-53.79,26.81-31.87,0-53.53-24.88-53.53-64.09,0-32.76,15.22-90.95,50.66-90.95,16.11,0,23.81,12.71,23.81,24.88,0,11.1-7.16,22.92-21.84,26.85-2.51,21.48,12.17,31.51,28.29,31.51,24.35,0,40.82-19.69,40.82-40.1,0-35.8-43.32-44.4-68.75-44.4C52.28,97.3,0,151.91,0,214.57c0,50.13,33.66,75.73,73.4,75.73,36.16,0,77.34-21.13,102.76-63.73l-.05-.03c11.26-15.51,22.11-33.11,32.66-52.16h58.18l7.88,27.93c8.59,30.43,7.52,59.62-25.42,59.62v.89h149.85l.18-.89c-24.71,0-36.52-20.59-49.77-62.84ZM209.49,173.12c12.53-22.92,24.53-47.8,36.34-73.76l20.77,73.76h-57.11Z"/>
</svg>