<?xml version="1.0" encoding="UTF-8"?>
<svg id="uuid-ef748202-f76d-4270-a567-568e8d53cb08" data-name="Capa 1" xmlns="http://www.w3.org/2000/svg" viewBox="0 0 400 400">
  <circle cx="200" cy="200" r="200" fill="#11162b"/>
  <path d="M315.451,229.524l-47.416-153.277c-27.879,63.755-55.314,130.626-87.347,174.61-11.272,14.058-27.01,20.64-41.417,20.64-24.536,0-41.214-19.16-41.214-49.346,0-25.225,11.716-70.022,39.008-70.022,12.406,0,18.333,9.787,18.333,19.16,0,8.546-5.514,17.643-16.817,20.676-1.93,16.54,9.374,24.26,21.779,24.26,18.746,0,31.427-15.163,31.427-30.877,0-27.567-33.356-34.184-52.93-34.184-52.378,0-92.627,42.041-92.627,90.285,0,38.595,25.913,58.305,56.514,58.305,27.843,0,59.546-16.265,79.12-49.07l-.037-.022c8.671-11.942,17.023-25.495,25.146-40.159h44.798l6.065,21.502c6.617,23.433,5.789,45.901-19.573,45.901v.689h115.371l.138-.689c-19.022,0-28.119-15.852-38.319-48.381ZM207.524,209.537c9.648-17.643,18.884-36.803,27.981-56.79l15.989,56.79h-43.971Z" fill="#fff" stroke="#fff" stroke-miterlimit="10"/>
</svg>