<?xml version="1.0" encoding="UTF-8"?>
<svg id="uuid-3056cabc-d7cb-4699-9cbe-8e1589d555f4" data-name="Capa 1" xmlns="http://www.w3.org/2000/svg" viewBox="0 0 400 400">
  <rect x="4.124" y="4.124" width="391.752" height="391.752" rx="28.621" ry="28.621" fill="#11162b" stroke="#000" stroke-miterlimit="10"/>
  <path d="M336.284,249.016l-55.972-180.936c-32.91,75.26-65.295,154.197-103.108,206.118-13.306,16.594-31.884,24.365-48.891,24.365-28.963,0-48.651-22.617-48.651-58.25,0-29.777,13.83-82.658,46.047-82.658,14.645,0,21.641,11.553,21.641,22.617,0,10.088-6.509,20.827-19.851,24.407-2.278,19.525,11.065,28.638,25.709,28.638,22.129,0,37.098-17.899,37.098-36.448,0-32.542-39.376-40.352-62.481-40.352-61.83,0-109.341,49.627-109.341,106.576,0,45.559,30.589,68.826,66.711,68.826,32.868,0,70.291-19.2,93.396-57.925l-.044-.026c10.235-14.097,20.095-30.095,29.683-47.406h52.882l7.159,25.382c7.811,27.661,6.834,54.184-23.105,54.184v.813h136.189l.163-.813c-22.454,0-33.193-18.712-45.234-57.112ZM208.881,225.423c11.389-20.827,22.292-43.444,33.03-67.037l18.875,67.037h-51.905Z" fill="#fff" stroke="#fff" stroke-miterlimit="10"/>
</svg>